<?xml version="1.0" encoding="utf-8" standalone="no"?>
<!DOCTYPE svg PUBLIC "-//W3C//DTD SVG 1.1//EN"
  "http://www.w3.org/Graphics/SVG/1.1/DTD/svg11.dtd">
<svg xmlns:xlink="http://www.w3.org/1999/xlink" width="972pt" height="302.4pt" viewBox="0 0 972 302.4" xmlns="http://www.w3.org/2000/svg" version="1.1">
 <metadata>
  <rdf:RDF xmlns:dc="http://purl.org/dc/elements/1.1/" xmlns:cc="http://creativecommons.org/ns#" xmlns:rdf="http://www.w3.org/1999/02/22-rdf-syntax-ns#">
   <cc:Work>
    <dc:type rdf:resource="http://purl.org/dc/dcmitype/StillImage"/>
    <dc:date>2026-03-27T12:26:01.253065</dc:date>
    <dc:format>image/svg+xml</dc:format>
    <dc:creator>
     <cc:Agent>
      <dc:title>Matplotlib v3.10.3, https://matplotlib.org/</dc:title>
     </cc:Agent>
    </dc:creator>
   </cc:Work>
  </rdf:RDF>
 </metadata>
 <defs>
  <style type="text/css">*{stroke-linejoin: round; stroke-linecap: butt}</style>
 </defs>
 <g id="figure_1">
  <g id="patch_1">
   <path d="M 0 302.4 
L 972 302.4 
L 972 0 
L 0 0 
z
" style="fill: #ffffff"/>
  </g>
  <g id="axes_1">
   <g id="patch_2">
    <path d="M 179.402727 114.837333 
L 558.623864 114.837333 
L 558.623864 58.2 
L 179.402727 58.2 
z
" style="fill: #ffffff"/>
   </g>
   <g id="line2d_1">
    <path d="M 179.402727 86.518667 
L 558.623864 86.518667 
" clip-path="url(#p983e796153)" style="fill: none; stroke: #d8d8d8; stroke-linecap: square"/>
   </g>
   <g id="FillBetweenPolyCollection_1">
    <defs>
     <path id="m430cdaf058" d="M 507.984193 -205.18317 
L 490.655311 -205.18317 
L 490.655311 -226.579496 
L 507.984193 -226.579496 
L 507.984193 -226.579496 
L 507.984193 -205.18317 
z
"/>
    </defs>
    <g clip-path="url(#p983e796153)">
     <use xlink:href="#m430cdaf058" x="0" y="302.4" style="fill: #1f77b4; fill-opacity: 0.16"/>
    </g>
   </g>
   <g id="FillBetweenPolyCollection_2">
    <defs>
     <path id="m2b8c08d0fc" d="M 504.727632 -205.18317 
L 484.29432 -205.18317 
L 484.29432 -226.579496 
L 504.727632 -226.579496 
L 504.727632 -226.579496 
L 504.727632 -205.18317 
z
"/>
    </defs>
    <g clip-path="url(#p983e796153)">
     <use xlink:href="#m2b8c08d0fc" x="0" y="302.4" style="fill: #d62728; fill-opacity: 0.16"/>
    </g>
   </g>
   <g id="FillBetweenPolyCollection_3">
    <defs>
     <path id="m7d8b944483" d="M 472.01472 -205.18317 
L 451.061327 -205.18317 
L 451.061327 -226.579496 
L 472.01472 -226.579496 
L 472.01472 -226.579496 
L 472.01472 -205.18317 
z
"/>
    </defs>
    <g clip-path="url(#p983e796153)">
     <use xlink:href="#m7d8b944483" x="0" y="302.4" style="fill: #9467bd; fill-opacity: 0.16"/>
    </g>
   </g>
   <g id="matplotlib.axis_1">
    <g id="xtick_1">
     <g id="line2d_2">
      <path d="M 179.402727 114.837333 
L 179.402727 58.2 
" clip-path="url(#p983e796153)" style="fill: none; stroke: #b0b0b0; stroke-opacity: 0.2; stroke-width: 0.8; stroke-linecap: square"/>
     </g>
     <g id="line2d_3">
      <defs>
       <path id="m26d64d0b1f" d="M 0 0 
L 0 3.5 
" style="stroke: #000000; stroke-width: 0.8"/>
      </defs>
      <g>
       <use xlink:href="#m26d64d0b1f" x="179.402727" y="114.837333" style="stroke: #000000; stroke-width: 0.8"/>
      </g>
     </g>
    </g>
    <g id="xtick_2">
     <g id="line2d_4">
      <path d="M 305.809773 114.837333 
L 305.809773 58.2 
" clip-path="url(#p983e796153)" style="fill: none; stroke: #b0b0b0; stroke-opacity: 0.2; stroke-width: 0.8; stroke-linecap: square"/>
     </g>
     <g id="line2d_5">
      <g>
       <use xlink:href="#m26d64d0b1f" x="305.809773" y="114.837333" style="stroke: #000000; stroke-width: 0.8"/>
      </g>
     </g>
    </g>
    <g id="xtick_3">
     <g id="line2d_6">
      <path d="M 432.216818 114.837333 
L 432.216818 58.2 
" clip-path="url(#p983e796153)" style="fill: none; stroke: #b0b0b0; stroke-opacity: 0.2; stroke-width: 0.8; stroke-linecap: square"/>
     </g>
     <g id="line2d_7">
      <g>
       <use xlink:href="#m26d64d0b1f" x="432.216818" y="114.837333" style="stroke: #000000; stroke-width: 0.8"/>
      </g>
     </g>
    </g>
    <g id="xtick_4">
     <g id="line2d_8">
      <path d="M 558.623864 114.837333 
L 558.623864 58.2 
" clip-path="url(#p983e796153)" style="fill: none; stroke: #b0b0b0; stroke-opacity: 0.2; stroke-width: 0.8; stroke-linecap: square"/>
     </g>
     <g id="line2d_9">
      <g>
       <use xlink:href="#m26d64d0b1f" x="558.623864" y="114.837333" style="stroke: #000000; stroke-width: 0.8"/>
      </g>
     </g>
    </g>
   </g>
   <g id="matplotlib.axis_2"/>
   <g id="LineCollection_1">
    <path d="M 499.319752 99.104741 
L 499.319752 73.932593 
" clip-path="url(#p983e796153)" style="fill: none; stroke: #1f77b4; stroke-width: 2.4"/>
   </g>
   <g id="LineCollection_2">
    <path d="M 494.510976 99.104741 
L 494.510976 73.932593 
" clip-path="url(#p983e796153)" style="fill: none; stroke: #d62728; stroke-width: 2.4"/>
   </g>
   <g id="LineCollection_3">
    <path d="M 461.538023 99.104741 
L 461.538023 73.932593 
" clip-path="url(#p983e796153)" style="fill: none; stroke: #9467bd; stroke-width: 2.4"/>
   </g>
   <g id="text_1">
    <!-- Buggy Interaction -->
    <g transform="translate(37.676286 89.51101) scale(0.11 -0.11)">
     <defs>
      <path id="DejaVuSans-Bold-42" d="M 2456 2859 
Q 2741 2859 2887 2984 
Q 3034 3109 3034 3353 
Q 3034 3594 2887 3720 
Q 2741 3847 2456 3847 
L 1791 3847 
L 1791 2859 
L 2456 2859 
z
M 2497 819 
Q 2859 819 3042 972 
Q 3225 1125 3225 1434 
Q 3225 1738 3044 1889 
Q 2863 2041 2497 2041 
L 1791 2041 
L 1791 819 
L 2497 819 
z
M 3616 2497 
Q 4003 2384 4215 2081 
Q 4428 1778 4428 1338 
Q 4428 663 3972 331 
Q 3516 0 2584 0 
L 588 0 
L 588 4666 
L 2394 4666 
Q 3366 4666 3802 4372 
Q 4238 4078 4238 3431 
Q 4238 3091 4078 2852 
Q 3919 2613 3616 2497 
z
" transform="scale(0.015625)"/>
      <path id="DejaVuSans-Bold-75" d="M 500 1363 
L 500 3500 
L 1625 3500 
L 1625 3150 
Q 1625 2866 1622 2436 
Q 1619 2006 1619 1863 
Q 1619 1441 1641 1255 
Q 1663 1069 1716 984 
Q 1784 875 1895 815 
Q 2006 756 2150 756 
Q 2500 756 2700 1025 
Q 2900 1294 2900 1772 
L 2900 3500 
L 4019 3500 
L 4019 0 
L 2900 0 
L 2900 506 
Q 2647 200 2364 54 
Q 2081 -91 1741 -91 
Q 1134 -91 817 281 
Q 500 653 500 1363 
z
" transform="scale(0.015625)"/>
      <path id="DejaVuSans-Bold-67" d="M 2919 594 
Q 2688 288 2409 144 
Q 2131 0 1766 0 
Q 1125 0 706 504 
Q 288 1009 288 1791 
Q 288 2575 706 3076 
Q 1125 3578 1766 3578 
Q 2131 3578 2409 3434 
Q 2688 3291 2919 2981 
L 2919 3500 
L 4044 3500 
L 4044 353 
Q 4044 -491 3511 -936 
Q 2978 -1381 1966 -1381 
Q 1638 -1381 1331 -1331 
Q 1025 -1281 716 -1178 
L 716 -306 
Q 1009 -475 1290 -558 
Q 1572 -641 1856 -641 
Q 2406 -641 2662 -400 
Q 2919 -159 2919 353 
L 2919 594 
z
M 2181 2772 
Q 1834 2772 1640 2515 
Q 1447 2259 1447 1791 
Q 1447 1309 1634 1061 
Q 1822 813 2181 813 
Q 2531 813 2725 1069 
Q 2919 1325 2919 1791 
Q 2919 2259 2725 2515 
Q 2531 2772 2181 2772 
z
" transform="scale(0.015625)"/>
      <path id="DejaVuSans-Bold-79" d="M 78 3500 
L 1197 3500 
L 2138 1125 
L 2938 3500 
L 4056 3500 
L 2584 -331 
Q 2363 -916 2067 -1148 
Q 1772 -1381 1288 -1381 
L 641 -1381 
L 641 -647 
L 991 -647 
Q 1275 -647 1404 -556 
Q 1534 -466 1606 -231 
L 1638 -134 
L 78 3500 
z
" transform="scale(0.015625)"/>
      <path id="DejaVuSans-Bold-20" transform="scale(0.015625)"/>
      <path id="DejaVuSans-Bold-49" d="M 588 4666 
L 1791 4666 
L 1791 0 
L 588 0 
L 588 4666 
z
" transform="scale(0.015625)"/>
      <path id="DejaVuSans-Bold-6e" d="M 4056 2131 
L 4056 0 
L 2931 0 
L 2931 347 
L 2931 1631 
Q 2931 2084 2911 2256 
Q 2891 2428 2841 2509 
Q 2775 2619 2662 2680 
Q 2550 2741 2406 2741 
Q 2056 2741 1856 2470 
Q 1656 2200 1656 1722 
L 1656 0 
L 538 0 
L 538 3500 
L 1656 3500 
L 1656 2988 
Q 1909 3294 2193 3439 
Q 2478 3584 2822 3584 
Q 3428 3584 3742 3212 
Q 4056 2841 4056 2131 
z
" transform="scale(0.015625)"/>
      <path id="DejaVuSans-Bold-74" d="M 1759 4494 
L 1759 3500 
L 2913 3500 
L 2913 2700 
L 1759 2700 
L 1759 1216 
Q 1759 972 1856 886 
Q 1953 800 2241 800 
L 2816 800 
L 2816 0 
L 1856 0 
Q 1194 0 917 276 
Q 641 553 641 1216 
L 641 2700 
L 84 2700 
L 84 3500 
L 641 3500 
L 641 4494 
L 1759 4494 
z
" transform="scale(0.015625)"/>
      <path id="DejaVuSans-Bold-65" d="M 4031 1759 
L 4031 1441 
L 1416 1441 
Q 1456 1047 1700 850 
Q 1944 653 2381 653 
Q 2734 653 3104 758 
Q 3475 863 3866 1075 
L 3866 213 
Q 3469 63 3072 -14 
Q 2675 -91 2278 -91 
Q 1328 -91 801 392 
Q 275 875 275 1747 
Q 275 2603 792 3093 
Q 1309 3584 2216 3584 
Q 3041 3584 3536 3087 
Q 4031 2591 4031 1759 
z
M 2881 2131 
Q 2881 2450 2695 2645 
Q 2509 2841 2209 2841 
Q 1884 2841 1681 2658 
Q 1478 2475 1428 2131 
L 2881 2131 
z
" transform="scale(0.015625)"/>
      <path id="DejaVuSans-Bold-72" d="M 3138 2547 
Q 2991 2616 2845 2648 
Q 2700 2681 2553 2681 
Q 2122 2681 1889 2404 
Q 1656 2128 1656 1613 
L 1656 0 
L 538 0 
L 538 3500 
L 1656 3500 
L 1656 2925 
Q 1872 3269 2151 3426 
Q 2431 3584 2822 3584 
Q 2878 3584 2943 3579 
Q 3009 3575 3134 3559 
L 3138 2547 
z
" transform="scale(0.015625)"/>
      <path id="DejaVuSans-Bold-61" d="M 2106 1575 
Q 1756 1575 1579 1456 
Q 1403 1338 1403 1106 
Q 1403 894 1545 773 
Q 1688 653 1941 653 
Q 2256 653 2472 879 
Q 2688 1106 2688 1447 
L 2688 1575 
L 2106 1575 
z
M 3816 1997 
L 3816 0 
L 2688 0 
L 2688 519 
Q 2463 200 2181 54 
Q 1900 -91 1497 -91 
Q 953 -91 614 226 
Q 275 544 275 1050 
Q 275 1666 698 1953 
Q 1122 2241 2028 2241 
L 2688 2241 
L 2688 2328 
Q 2688 2594 2478 2717 
Q 2269 2841 1825 2841 
Q 1466 2841 1156 2769 
Q 847 2697 581 2553 
L 581 3406 
Q 941 3494 1303 3539 
Q 1666 3584 2028 3584 
Q 2975 3584 3395 3211 
Q 3816 2838 3816 1997 
z
" transform="scale(0.015625)"/>
      <path id="DejaVuSans-Bold-63" d="M 3366 3391 
L 3366 2478 
Q 3138 2634 2908 2709 
Q 2678 2784 2431 2784 
Q 1963 2784 1702 2511 
Q 1441 2238 1441 1747 
Q 1441 1256 1702 982 
Q 1963 709 2431 709 
Q 2694 709 2930 787 
Q 3166 866 3366 1019 
L 3366 103 
Q 3103 6 2833 -42 
Q 2563 -91 2291 -91 
Q 1344 -91 809 395 
Q 275 881 275 1747 
Q 275 2613 809 3098 
Q 1344 3584 2291 3584 
Q 2566 3584 2833 3536 
Q 3100 3488 3366 3391 
z
" transform="scale(0.015625)"/>
      <path id="DejaVuSans-Bold-69" d="M 538 3500 
L 1656 3500 
L 1656 0 
L 538 0 
L 538 3500 
z
M 538 4863 
L 1656 4863 
L 1656 3950 
L 538 3950 
L 538 4863 
z
" transform="scale(0.015625)"/>
      <path id="DejaVuSans-Bold-6f" d="M 2203 2784 
Q 1831 2784 1636 2517 
Q 1441 2250 1441 1747 
Q 1441 1244 1636 976 
Q 1831 709 2203 709 
Q 2569 709 2762 976 
Q 2956 1244 2956 1747 
Q 2956 2250 2762 2517 
Q 2569 2784 2203 2784 
z
M 2203 3584 
Q 3106 3584 3614 3096 
Q 4122 2609 4122 1747 
Q 4122 884 3614 396 
Q 3106 -91 2203 -91 
Q 1297 -91 786 396 
Q 275 884 275 1747 
Q 275 2609 786 3096 
Q 1297 3584 2203 3584 
z
" transform="scale(0.015625)"/>
     </defs>
     <use xlink:href="#DejaVuSans-Bold-42"/>
     <use xlink:href="#DejaVuSans-Bold-75" transform="translate(76.220703 0)"/>
     <use xlink:href="#DejaVuSans-Bold-67" transform="translate(147.412109 0)"/>
     <use xlink:href="#DejaVuSans-Bold-67" transform="translate(218.994141 0)"/>
     <use xlink:href="#DejaVuSans-Bold-79" transform="translate(290.576172 0)"/>
     <use xlink:href="#DejaVuSans-Bold-20" transform="translate(355.761719 0)"/>
     <use xlink:href="#DejaVuSans-Bold-49" transform="translate(390.576172 0)"/>
     <use xlink:href="#DejaVuSans-Bold-6e" transform="translate(427.783203 0)"/>
     <use xlink:href="#DejaVuSans-Bold-74" transform="translate(498.974609 0)"/>
     <use xlink:href="#DejaVuSans-Bold-65" transform="translate(546.777344 0)"/>
     <use xlink:href="#DejaVuSans-Bold-72" transform="translate(614.599609 0)"/>
     <use xlink:href="#DejaVuSans-Bold-61" transform="translate(663.916016 0)"/>
     <use xlink:href="#DejaVuSans-Bold-63" transform="translate(731.396484 0)"/>
     <use xlink:href="#DejaVuSans-Bold-74" transform="translate(790.673828 0)"/>
     <use xlink:href="#DejaVuSans-Bold-69" transform="translate(838.476562 0)"/>
     <use xlink:href="#DejaVuSans-Bold-6f" transform="translate(872.753906 0)"/>
     <use xlink:href="#DejaVuSans-Bold-6e" transform="translate(941.455078 0)"/>
    </g>
   </g>
   <g id="text_2">
    <!-- Trust Questions -->
    <g transform="translate(315.920795 52.2) scale(0.12 -0.12)">
     <defs>
      <path id="DejaVuSans-Bold-54" d="M 31 4666 
L 4331 4666 
L 4331 3756 
L 2784 3756 
L 2784 0 
L 1581 0 
L 1581 3756 
L 31 3756 
L 31 4666 
z
" transform="scale(0.015625)"/>
      <path id="DejaVuSans-Bold-73" d="M 3272 3391 
L 3272 2541 
Q 2913 2691 2578 2766 
Q 2244 2841 1947 2841 
Q 1628 2841 1473 2761 
Q 1319 2681 1319 2516 
Q 1319 2381 1436 2309 
Q 1553 2238 1856 2203 
L 2053 2175 
Q 2913 2066 3209 1816 
Q 3506 1566 3506 1031 
Q 3506 472 3093 190 
Q 2681 -91 1863 -91 
Q 1516 -91 1145 -36 
Q 775 19 384 128 
L 384 978 
Q 719 816 1070 734 
Q 1422 653 1784 653 
Q 2113 653 2278 743 
Q 2444 834 2444 1013 
Q 2444 1163 2330 1236 
Q 2216 1309 1875 1350 
L 1678 1375 
Q 931 1469 631 1722 
Q 331 1975 331 2491 
Q 331 3047 712 3315 
Q 1094 3584 1881 3584 
Q 2191 3584 2531 3537 
Q 2872 3491 3272 3391 
z
" transform="scale(0.015625)"/>
      <path id="DejaVuSans-Bold-51" d="M 2847 -84 
L 2753 -84 
Q 1600 -84 959 553 
Q 319 1191 319 2328 
Q 319 3463 958 4106 
Q 1597 4750 2719 4750 
Q 3853 4750 4486 4112 
Q 5119 3475 5119 2328 
Q 5119 1541 4783 972 
Q 4447 403 3816 116 
L 4756 -934 
L 3609 -934 
L 2847 -84 
z
M 2719 3878 
Q 2169 3878 1866 3472 
Q 1563 3066 1563 2328 
Q 1563 1578 1859 1179 
Q 2156 781 2719 781 
Q 3272 781 3575 1187 
Q 3878 1594 3878 2328 
Q 3878 3066 3575 3472 
Q 3272 3878 2719 3878 
z
" transform="scale(0.015625)"/>
     </defs>
     <use xlink:href="#DejaVuSans-Bold-54"/>
     <use xlink:href="#DejaVuSans-Bold-72" transform="translate(57.212891 0)"/>
     <use xlink:href="#DejaVuSans-Bold-75" transform="translate(106.529297 0)"/>
     <use xlink:href="#DejaVuSans-Bold-73" transform="translate(177.720703 0)"/>
     <use xlink:href="#DejaVuSans-Bold-74" transform="translate(237.242188 0)"/>
     <use xlink:href="#DejaVuSans-Bold-20" transform="translate(285.044922 0)"/>
     <use xlink:href="#DejaVuSans-Bold-51" transform="translate(319.859375 0)"/>
     <use xlink:href="#DejaVuSans-Bold-75" transform="translate(404.869141 0)"/>
     <use xlink:href="#DejaVuSans-Bold-65" transform="translate(476.060547 0)"/>
     <use xlink:href="#DejaVuSans-Bold-73" transform="translate(543.882812 0)"/>
     <use xlink:href="#DejaVuSans-Bold-74" transform="translate(603.404297 0)"/>
     <use xlink:href="#DejaVuSans-Bold-69" transform="translate(651.207031 0)"/>
     <use xlink:href="#DejaVuSans-Bold-6f" transform="translate(685.484375 0)"/>
     <use xlink:href="#DejaVuSans-Bold-6e" transform="translate(754.185547 0)"/>
     <use xlink:href="#DejaVuSans-Bold-73" transform="translate(825.376953 0)"/>
    </g>
   </g>
  </g>
  <g id="axes_2">
   <g id="patch_3">
    <path d="M 577.433864 114.837333 
L 956.655 114.837333 
L 956.655 58.2 
L 577.433864 58.2 
z
" style="fill: #ffffff"/>
   </g>
   <g id="line2d_10">
    <path d="M 577.433864 86.518667 
L 956.655 86.518667 
" clip-path="url(#pbcd235ffad)" style="fill: none; stroke: #d8d8d8; stroke-linecap: square"/>
   </g>
   <g id="FillBetweenPolyCollection_4">
    <defs>
     <path id="m8fc3478ed9" d="M 808.758624 -205.18317 
L 797.268806 -205.18317 
L 797.268806 -226.579496 
L 808.758624 -226.579496 
L 808.758624 -226.579496 
L 808.758624 -205.18317 
z
"/>
    </defs>
    <g clip-path="url(#pbcd235ffad)">
     <use xlink:href="#m8fc3478ed9" x="0" y="302.4" style="fill: #1f77b4; fill-opacity: 0.16"/>
    </g>
   </g>
   <g id="FillBetweenPolyCollection_5">
    <defs>
     <path id="m2d63a88c50" d="M 806.203281 -205.18317 
L 794.914608 -205.18317 
L 794.914608 -226.579496 
L 806.203281 -226.579496 
L 806.203281 -226.579496 
L 806.203281 -205.18317 
z
"/>
    </defs>
    <g clip-path="url(#pbcd235ffad)">
     <use xlink:href="#m2d63a88c50" x="0" y="302.4" style="fill: #d62728; fill-opacity: 0.16"/>
    </g>
   </g>
   <g id="FillBetweenPolyCollection_6">
    <defs>
     <path id="m8b4d086d1f" d="M 792.30043 -205.18317 
L 780.746071 -205.18317 
L 780.746071 -226.579496 
L 792.30043 -226.579496 
L 792.30043 -226.579496 
L 792.30043 -205.18317 
z
"/>
    </defs>
    <g clip-path="url(#pbcd235ffad)">
     <use xlink:href="#m8b4d086d1f" x="0" y="302.4" style="fill: #9467bd; fill-opacity: 0.16"/>
    </g>
   </g>
   <g id="matplotlib.axis_3">
    <g id="xtick_5">
     <g id="line2d_11">
      <path d="M 577.433864 114.837333 
L 577.433864 58.2 
" clip-path="url(#pbcd235ffad)" style="fill: none; stroke: #b0b0b0; stroke-opacity: 0.2; stroke-width: 0.8; stroke-linecap: square"/>
     </g>
     <g id="line2d_12">
      <g>
       <use xlink:href="#m26d64d0b1f" x="577.433864" y="114.837333" style="stroke: #000000; stroke-width: 0.8"/>
      </g>
     </g>
    </g>
    <g id="xtick_6">
     <g id="line2d_13">
      <path d="M 703.840909 114.837333 
L 703.840909 58.2 
" clip-path="url(#pbcd235ffad)" style="fill: none; stroke: #b0b0b0; stroke-opacity: 0.2; stroke-width: 0.8; stroke-linecap: square"/>
     </g>
     <g id="line2d_14">
      <g>
       <use xlink:href="#m26d64d0b1f" x="703.840909" y="114.837333" style="stroke: #000000; stroke-width: 0.8"/>
      </g>
     </g>
    </g>
    <g id="xtick_7">
     <g id="line2d_15">
      <path d="M 830.247955 114.837333 
L 830.247955 58.2 
" clip-path="url(#pbcd235ffad)" style="fill: none; stroke: #b0b0b0; stroke-opacity: 0.2; stroke-width: 0.8; stroke-linecap: square"/>
     </g>
     <g id="line2d_16">
      <g>
       <use xlink:href="#m26d64d0b1f" x="830.247955" y="114.837333" style="stroke: #000000; stroke-width: 0.8"/>
      </g>
     </g>
    </g>
    <g id="xtick_8">
     <g id="line2d_17">
      <path d="M 956.655 114.837333 
L 956.655 58.2 
" clip-path="url(#pbcd235ffad)" style="fill: none; stroke: #b0b0b0; stroke-opacity: 0.2; stroke-width: 0.8; stroke-linecap: square"/>
     </g>
     <g id="line2d_18">
      <g>
       <use xlink:href="#m26d64d0b1f" x="956.655" y="114.837333" style="stroke: #000000; stroke-width: 0.8"/>
      </g>
     </g>
    </g>
   </g>
   <g id="matplotlib.axis_4"/>
   <g id="LineCollection_4">
    <path d="M 803.013715 99.104741 
L 803.013715 73.932593 
" clip-path="url(#pbcd235ffad)" style="fill: none; stroke: #1f77b4; stroke-width: 2.4"/>
   </g>
   <g id="LineCollection_5">
    <path d="M 800.558945 99.104741 
L 800.558945 73.932593 
" clip-path="url(#pbcd235ffad)" style="fill: none; stroke: #d62728; stroke-width: 2.4"/>
   </g>
   <g id="LineCollection_6">
    <path d="M 786.523251 99.104741 
L 786.523251 73.932593 
" clip-path="url(#pbcd235ffad)" style="fill: none; stroke: #9467bd; stroke-width: 2.4"/>
   </g>
   <g id="text_3">
    <!-- Interactive Questions -->
    <g transform="translate(694.142557 52.2) scale(0.12 -0.12)">
     <defs>
      <path id="DejaVuSans-Bold-76" d="M 97 3500 
L 1216 3500 
L 2088 1081 
L 2956 3500 
L 4078 3500 
L 2700 0 
L 1472 0 
L 97 3500 
z
" transform="scale(0.015625)"/>
     </defs>
     <use xlink:href="#DejaVuSans-Bold-49"/>
     <use xlink:href="#DejaVuSans-Bold-6e" transform="translate(37.207031 0)"/>
     <use xlink:href="#DejaVuSans-Bold-74" transform="translate(108.398438 0)"/>
     <use xlink:href="#DejaVuSans-Bold-65" transform="translate(156.201172 0)"/>
     <use xlink:href="#DejaVuSans-Bold-72" transform="translate(224.023438 0)"/>
     <use xlink:href="#DejaVuSans-Bold-61" transform="translate(273.339844 0)"/>
     <use xlink:href="#DejaVuSans-Bold-63" transform="translate(340.820312 0)"/>
     <use xlink:href="#DejaVuSans-Bold-74" transform="translate(400.097656 0)"/>
     <use xlink:href="#DejaVuSans-Bold-69" transform="translate(447.900391 0)"/>
     <use xlink:href="#DejaVuSans-Bold-76" transform="translate(482.177734 0)"/>
     <use xlink:href="#DejaVuSans-Bold-65" transform="translate(547.363281 0)"/>
     <use xlink:href="#DejaVuSans-Bold-20" transform="translate(615.185547 0)"/>
     <use xlink:href="#DejaVuSans-Bold-51" transform="translate(650 0)"/>
     <use xlink:href="#DejaVuSans-Bold-75" transform="translate(735.009766 0)"/>
     <use xlink:href="#DejaVuSans-Bold-65" transform="translate(806.201172 0)"/>
     <use xlink:href="#DejaVuSans-Bold-73" transform="translate(874.023438 0)"/>
     <use xlink:href="#DejaVuSans-Bold-74" transform="translate(933.544922 0)"/>
     <use xlink:href="#DejaVuSans-Bold-69" transform="translate(981.347656 0)"/>
     <use xlink:href="#DejaVuSans-Bold-6f" transform="translate(1015.625 0)"/>
     <use xlink:href="#DejaVuSans-Bold-6e" transform="translate(1084.326172 0)"/>
     <use xlink:href="#DejaVuSans-Bold-73" transform="translate(1155.517578 0)"/>
    </g>
   </g>
  </g>
  <g id="axes_3">
   <g id="patch_4">
    <path d="M 179.402727 183.354667 
L 558.623864 183.354667 
L 558.623864 126.717333 
L 179.402727 126.717333 
z
" style="fill: #ffffff"/>
   </g>
   <g id="line2d_19">
    <path d="M 179.402727 155.036 
L 558.623864 155.036 
" clip-path="url(#p8e314c2072)" style="fill: none; stroke: #d8d8d8; stroke-linecap: square"/>
   </g>
   <g id="FillBetweenPolyCollection_7">
    <defs>
     <path id="m7427d04cc9" d="M 553.207123 -136.665837 
L 531.322696 -136.665837 
L 531.322696 -158.062163 
L 553.207123 -158.062163 
L 553.207123 -158.062163 
L 553.207123 -136.665837 
z
"/>
    </defs>
    <g clip-path="url(#p8e314c2072)">
     <use xlink:href="#m7427d04cc9" x="0" y="302.4" style="fill: #1f77b4; fill-opacity: 0.16"/>
    </g>
   </g>
   <g id="FillBetweenPolyCollection_8">
    <defs>
     <path id="md28d04071d" d="M 543.254491 -136.665837 
L 521.681063 -136.665837 
L 521.681063 -158.062163 
L 543.254491 -158.062163 
L 543.254491 -158.062163 
L 543.254491 -136.665837 
z
"/>
    </defs>
    <g clip-path="url(#p8e314c2072)">
     <use xlink:href="#md28d04071d" x="0" y="302.4" style="fill: #d62728; fill-opacity: 0.16"/>
    </g>
   </g>
   <g id="FillBetweenPolyCollection_9">
    <defs>
     <path id="ma66e4307aa" d="M 510.488013 -136.665837 
L 492.403716 -136.665837 
L 492.403716 -158.062163 
L 510.488013 -158.062163 
L 510.488013 -158.062163 
L 510.488013 -136.665837 
z
"/>
    </defs>
    <g clip-path="url(#p8e314c2072)">
     <use xlink:href="#ma66e4307aa" x="0" y="302.4" style="fill: #9467bd; fill-opacity: 0.16"/>
    </g>
   </g>
   <g id="matplotlib.axis_5">
    <g id="xtick_9">
     <g id="line2d_20">
      <path d="M 179.402727 183.354667 
L 179.402727 126.717333 
" clip-path="url(#p8e314c2072)" style="fill: none; stroke: #b0b0b0; stroke-opacity: 0.2; stroke-width: 0.8; stroke-linecap: square"/>
     </g>
     <g id="line2d_21">
      <g>
       <use xlink:href="#m26d64d0b1f" x="179.402727" y="183.354667" style="stroke: #000000; stroke-width: 0.8"/>
      </g>
     </g>
    </g>
    <g id="xtick_10">
     <g id="line2d_22">
      <path d="M 305.809773 183.354667 
L 305.809773 126.717333 
" clip-path="url(#p8e314c2072)" style="fill: none; stroke: #b0b0b0; stroke-opacity: 0.2; stroke-width: 0.8; stroke-linecap: square"/>
     </g>
     <g id="line2d_23">
      <g>
       <use xlink:href="#m26d64d0b1f" x="305.809773" y="183.354667" style="stroke: #000000; stroke-width: 0.8"/>
      </g>
     </g>
    </g>
    <g id="xtick_11">
     <g id="line2d_24">
      <path d="M 432.216818 183.354667 
L 432.216818 126.717333 
" clip-path="url(#p8e314c2072)" style="fill: none; stroke: #b0b0b0; stroke-opacity: 0.2; stroke-width: 0.8; stroke-linecap: square"/>
     </g>
     <g id="line2d_25">
      <g>
       <use xlink:href="#m26d64d0b1f" x="432.216818" y="183.354667" style="stroke: #000000; stroke-width: 0.8"/>
      </g>
     </g>
    </g>
    <g id="xtick_12">
     <g id="line2d_26">
      <path d="M 558.623864 183.354667 
L 558.623864 126.717333 
" clip-path="url(#p8e314c2072)" style="fill: none; stroke: #b0b0b0; stroke-opacity: 0.2; stroke-width: 0.8; stroke-linecap: square"/>
     </g>
     <g id="line2d_27">
      <g>
       <use xlink:href="#m26d64d0b1f" x="558.623864" y="183.354667" style="stroke: #000000; stroke-width: 0.8"/>
      </g>
     </g>
    </g>
   </g>
   <g id="matplotlib.axis_6"/>
   <g id="LineCollection_7">
    <path d="M 542.26491 167.622074 
L 542.26491 142.449926 
" clip-path="url(#p8e314c2072)" style="fill: none; stroke: #1f77b4; stroke-width: 2.4"/>
   </g>
   <g id="LineCollection_8">
    <path d="M 532.467777 167.622074 
L 532.467777 142.449926 
" clip-path="url(#p8e314c2072)" style="fill: none; stroke: #d62728; stroke-width: 2.4"/>
   </g>
   <g id="LineCollection_9">
    <path d="M 501.445865 167.622074 
L 501.445865 142.449926 
" clip-path="url(#p8e314c2072)" style="fill: none; stroke: #9467bd; stroke-width: 2.4"/>
   </g>
   <g id="text_4">
    <!-- Full Interaction -->
    <g transform="translate(54.471911 158.071313) scale(0.11 -0.11)">
     <defs>
      <path id="DejaVuSans-Bold-46" d="M 588 4666 
L 3834 4666 
L 3834 3756 
L 1791 3756 
L 1791 2888 
L 3713 2888 
L 3713 1978 
L 1791 1978 
L 1791 0 
L 588 0 
L 588 4666 
z
" transform="scale(0.015625)"/>
      <path id="DejaVuSans-Bold-6c" d="M 538 4863 
L 1656 4863 
L 1656 0 
L 538 0 
L 538 4863 
z
" transform="scale(0.015625)"/>
     </defs>
     <use xlink:href="#DejaVuSans-Bold-46"/>
     <use xlink:href="#DejaVuSans-Bold-75" transform="translate(63.310547 0)"/>
     <use xlink:href="#DejaVuSans-Bold-6c" transform="translate(134.501953 0)"/>
     <use xlink:href="#DejaVuSans-Bold-6c" transform="translate(168.779297 0)"/>
     <use xlink:href="#DejaVuSans-Bold-20" transform="translate(203.056641 0)"/>
     <use xlink:href="#DejaVuSans-Bold-49" transform="translate(237.871094 0)"/>
     <use xlink:href="#DejaVuSans-Bold-6e" transform="translate(275.078125 0)"/>
     <use xlink:href="#DejaVuSans-Bold-74" transform="translate(346.269531 0)"/>
     <use xlink:href="#DejaVuSans-Bold-65" transform="translate(394.072266 0)"/>
     <use xlink:href="#DejaVuSans-Bold-72" transform="translate(461.894531 0)"/>
     <use xlink:href="#DejaVuSans-Bold-61" transform="translate(511.210938 0)"/>
     <use xlink:href="#DejaVuSans-Bold-63" transform="translate(578.691406 0)"/>
     <use xlink:href="#DejaVuSans-Bold-74" transform="translate(637.96875 0)"/>
     <use xlink:href="#DejaVuSans-Bold-69" transform="translate(685.771484 0)"/>
     <use xlink:href="#DejaVuSans-Bold-6f" transform="translate(720.048828 0)"/>
     <use xlink:href="#DejaVuSans-Bold-6e" transform="translate(788.75 0)"/>
    </g>
   </g>
  </g>
  <g id="axes_4">
   <g id="patch_5">
    <path d="M 577.433864 183.354667 
L 956.655 183.354667 
L 956.655 126.717333 
L 577.433864 126.717333 
z
" style="fill: #ffffff"/>
   </g>
   <g id="line2d_28">
    <path d="M 577.433864 155.036 
L 956.655 155.036 
" clip-path="url(#p316f4912fa)" style="fill: none; stroke: #d8d8d8; stroke-linecap: square"/>
   </g>
   <g id="FillBetweenPolyCollection_10">
    <defs>
     <path id="me6815de8a5" d="M 818.961153 -136.665837 
L 804.651536 -136.665837 
L 804.651536 -158.062163 
L 818.961153 -158.062163 
L 818.961153 -158.062163 
L 818.961153 -136.665837 
z
"/>
    </defs>
    <g clip-path="url(#p316f4912fa)">
     <use xlink:href="#me6815de8a5" x="0" y="302.4" style="fill: #1f77b4; fill-opacity: 0.16"/>
    </g>
   </g>
   <g id="FillBetweenPolyCollection_11">
    <defs>
     <path id="m21746607fd" d="M 831.170328 -136.665837 
L 814.802243 -136.665837 
L 814.802243 -158.062163 
L 831.170328 -158.062163 
L 831.170328 -158.062163 
L 831.170328 -136.665837 
z
"/>
    </defs>
    <g clip-path="url(#p316f4912fa)">
     <use xlink:href="#m21746607fd" x="0" y="302.4" style="fill: #d62728; fill-opacity: 0.16"/>
    </g>
   </g>
   <g id="FillBetweenPolyCollection_12">
    <defs>
     <path id="m8b70c46b11" d="M 807.246207 -136.665837 
L 795.516888 -136.665837 
L 795.516888 -158.062163 
L 807.246207 -158.062163 
L 807.246207 -158.062163 
L 807.246207 -136.665837 
z
"/>
    </defs>
    <g clip-path="url(#p316f4912fa)">
     <use xlink:href="#m8b70c46b11" x="0" y="302.4" style="fill: #9467bd; fill-opacity: 0.16"/>
    </g>
   </g>
   <g id="matplotlib.axis_7">
    <g id="xtick_13">
     <g id="line2d_29">
      <path d="M 577.433864 183.354667 
L 577.433864 126.717333 
" clip-path="url(#p316f4912fa)" style="fill: none; stroke: #b0b0b0; stroke-opacity: 0.2; stroke-width: 0.8; stroke-linecap: square"/>
     </g>
     <g id="line2d_30">
      <g>
       <use xlink:href="#m26d64d0b1f" x="577.433864" y="183.354667" style="stroke: #000000; stroke-width: 0.8"/>
      </g>
     </g>
    </g>
    <g id="xtick_14">
     <g id="line2d_31">
      <path d="M 703.840909 183.354667 
L 703.840909 126.717333 
" clip-path="url(#p316f4912fa)" style="fill: none; stroke: #b0b0b0; stroke-opacity: 0.2; stroke-width: 0.8; stroke-linecap: square"/>
     </g>
     <g id="line2d_32">
      <g>
       <use xlink:href="#m26d64d0b1f" x="703.840909" y="183.354667" style="stroke: #000000; stroke-width: 0.8"/>
      </g>
     </g>
    </g>
    <g id="xtick_15">
     <g id="line2d_33">
      <path d="M 830.247955 183.354667 
L 830.247955 126.717333 
" clip-path="url(#p316f4912fa)" style="fill: none; stroke: #b0b0b0; stroke-opacity: 0.2; stroke-width: 0.8; stroke-linecap: square"/>
     </g>
     <g id="line2d_34">
      <g>
       <use xlink:href="#m26d64d0b1f" x="830.247955" y="183.354667" style="stroke: #000000; stroke-width: 0.8"/>
      </g>
     </g>
    </g>
    <g id="xtick_16">
     <g id="line2d_35">
      <path d="M 956.655 183.354667 
L 956.655 126.717333 
" clip-path="url(#p316f4912fa)" style="fill: none; stroke: #b0b0b0; stroke-opacity: 0.2; stroke-width: 0.8; stroke-linecap: square"/>
     </g>
     <g id="line2d_36">
      <g>
       <use xlink:href="#m26d64d0b1f" x="956.655" y="183.354667" style="stroke: #000000; stroke-width: 0.8"/>
      </g>
     </g>
    </g>
   </g>
   <g id="matplotlib.axis_8"/>
   <g id="LineCollection_10">
    <path d="M 811.806345 167.622074 
L 811.806345 142.449926 
" clip-path="url(#p316f4912fa)" style="fill: none; stroke: #1f77b4; stroke-width: 2.4"/>
   </g>
   <g id="LineCollection_11">
    <path d="M 822.986285 167.622074 
L 822.986285 142.449926 
" clip-path="url(#p316f4912fa)" style="fill: none; stroke: #d62728; stroke-width: 2.4"/>
   </g>
   <g id="LineCollection_12">
    <path d="M 801.381548 167.622074 
L 801.381548 142.449926 
" clip-path="url(#p316f4912fa)" style="fill: none; stroke: #9467bd; stroke-width: 2.4"/>
   </g>
  </g>
  <g id="axes_5">
   <g id="patch_6">
    <path d="M 179.402727 251.872 
L 558.623864 251.872 
L 558.623864 195.234667 
L 179.402727 195.234667 
z
" style="fill: #ffffff"/>
   </g>
   <g id="line2d_37">
    <path d="M 179.402727 223.553333 
L 558.623864 223.553333 
" clip-path="url(#p6890ff2160)" style="fill: none; stroke: #d8d8d8; stroke-linecap: square"/>
   </g>
   <g id="FillBetweenPolyCollection_13">
    <defs>
     <path id="m9243270f1d" d="M 529.681831 -68.148504 
L 514.072287 -68.148504 
L 514.072287 -89.54483 
L 529.681831 -89.54483 
L 529.681831 -89.54483 
L 529.681831 -68.148504 
z
"/>
    </defs>
    <g clip-path="url(#p6890ff2160)">
     <use xlink:href="#m9243270f1d" x="0" y="302.4" style="fill: #1f77b4; fill-opacity: 0.16"/>
    </g>
   </g>
   <g id="FillBetweenPolyCollection_14">
    <defs>
     <path id="m774916715b" d="M 470.0666 -68.148504 
L 448.360482 -68.148504 
L 448.360482 -89.54483 
L 470.0666 -89.54483 
L 470.0666 -89.54483 
L 470.0666 -68.148504 
z
"/>
    </defs>
    <g clip-path="url(#p6890ff2160)">
     <use xlink:href="#m774916715b" x="0" y="302.4" style="fill: #d62728; fill-opacity: 0.16"/>
    </g>
   </g>
   <g id="FillBetweenPolyCollection_15">
    <defs>
     <path id="m0fca84644e" d="M 456.199349 -68.148504 
L 431.621724 -68.148504 
L 431.621724 -89.54483 
L 456.199349 -89.54483 
L 456.199349 -89.54483 
L 456.199349 -68.148504 
z
"/>
    </defs>
    <g clip-path="url(#p6890ff2160)">
     <use xlink:href="#m0fca84644e" x="0" y="302.4" style="fill: #9467bd; fill-opacity: 0.16"/>
    </g>
   </g>
   <g id="matplotlib.axis_9">
    <g id="xtick_17">
     <g id="line2d_38">
      <path d="M 179.402727 251.872 
L 179.402727 195.234667 
" clip-path="url(#p6890ff2160)" style="fill: none; stroke: #b0b0b0; stroke-opacity: 0.2; stroke-width: 0.8; stroke-linecap: square"/>
     </g>
     <g id="line2d_39">
      <g>
       <use xlink:href="#m26d64d0b1f" x="179.402727" y="251.872" style="stroke: #000000; stroke-width: 0.8"/>
      </g>
     </g>
     <g id="text_5">
      <!-- 2 -->
      <g transform="translate(175.903352 267.230281) scale(0.11 -0.11)">
       <defs>
        <path id="DejaVuSans-32" d="M 1228 531 
L 3431 531 
L 3431 0 
L 469 0 
L 469 531 
Q 828 903 1448 1529 
Q 2069 2156 2228 2338 
Q 2531 2678 2651 2914 
Q 2772 3150 2772 3378 
Q 2772 3750 2511 3984 
Q 2250 4219 1831 4219 
Q 1534 4219 1204 4116 
Q 875 4013 500 3803 
L 500 4441 
Q 881 4594 1212 4672 
Q 1544 4750 1819 4750 
Q 2544 4750 2975 4387 
Q 3406 4025 3406 3419 
Q 3406 3131 3298 2873 
Q 3191 2616 2906 2266 
Q 2828 2175 2409 1742 
Q 1991 1309 1228 531 
z
" transform="scale(0.015625)"/>
       </defs>
       <use xlink:href="#DejaVuSans-32"/>
      </g>
     </g>
    </g>
    <g id="xtick_18">
     <g id="line2d_40">
      <path d="M 305.809773 251.872 
L 305.809773 195.234667 
" clip-path="url(#p6890ff2160)" style="fill: none; stroke: #b0b0b0; stroke-opacity: 0.2; stroke-width: 0.8; stroke-linecap: square"/>
     </g>
     <g id="line2d_41">
      <g>
       <use xlink:href="#m26d64d0b1f" x="305.809773" y="251.872" style="stroke: #000000; stroke-width: 0.8"/>
      </g>
     </g>
     <g id="text_6">
      <!-- 3 -->
      <g transform="translate(302.310398 267.230281) scale(0.11 -0.11)">
       <defs>
        <path id="DejaVuSans-33" d="M 2597 2516 
Q 3050 2419 3304 2112 
Q 3559 1806 3559 1356 
Q 3559 666 3084 287 
Q 2609 -91 1734 -91 
Q 1441 -91 1130 -33 
Q 819 25 488 141 
L 488 750 
Q 750 597 1062 519 
Q 1375 441 1716 441 
Q 2309 441 2620 675 
Q 2931 909 2931 1356 
Q 2931 1769 2642 2001 
Q 2353 2234 1838 2234 
L 1294 2234 
L 1294 2753 
L 1863 2753 
Q 2328 2753 2575 2939 
Q 2822 3125 2822 3475 
Q 2822 3834 2567 4026 
Q 2313 4219 1838 4219 
Q 1578 4219 1281 4162 
Q 984 4106 628 3988 
L 628 4550 
Q 988 4650 1302 4700 
Q 1616 4750 1894 4750 
Q 2613 4750 3031 4423 
Q 3450 4097 3450 3541 
Q 3450 3153 3228 2886 
Q 3006 2619 2597 2516 
z
" transform="scale(0.015625)"/>
       </defs>
       <use xlink:href="#DejaVuSans-33"/>
      </g>
     </g>
    </g>
    <g id="xtick_19">
     <g id="line2d_42">
      <path d="M 432.216818 251.872 
L 432.216818 195.234667 
" clip-path="url(#p6890ff2160)" style="fill: none; stroke: #b0b0b0; stroke-opacity: 0.2; stroke-width: 0.8; stroke-linecap: square"/>
     </g>
     <g id="line2d_43">
      <g>
       <use xlink:href="#m26d64d0b1f" x="432.216818" y="251.872" style="stroke: #000000; stroke-width: 0.8"/>
      </g>
     </g>
     <g id="text_7">
      <!-- 4 -->
      <g transform="translate(428.717443 267.230281) scale(0.11 -0.11)">
       <defs>
        <path id="DejaVuSans-34" d="M 2419 4116 
L 825 1625 
L 2419 1625 
L 2419 4116 
z
M 2253 4666 
L 3047 4666 
L 3047 1625 
L 3713 1625 
L 3713 1100 
L 3047 1100 
L 3047 0 
L 2419 0 
L 2419 1100 
L 313 1100 
L 313 1709 
L 2253 4666 
z
" transform="scale(0.015625)"/>
       </defs>
       <use xlink:href="#DejaVuSans-34"/>
      </g>
     </g>
    </g>
    <g id="xtick_20">
     <g id="line2d_44">
      <path d="M 558.623864 251.872 
L 558.623864 195.234667 
" clip-path="url(#p6890ff2160)" style="fill: none; stroke: #b0b0b0; stroke-opacity: 0.2; stroke-width: 0.8; stroke-linecap: square"/>
     </g>
     <g id="line2d_45">
      <g>
       <use xlink:href="#m26d64d0b1f" x="558.623864" y="251.872" style="stroke: #000000; stroke-width: 0.8"/>
      </g>
     </g>
     <g id="text_8">
      <!-- 5 -->
      <g transform="translate(555.124489 267.230281) scale(0.11 -0.11)">
       <defs>
        <path id="DejaVuSans-35" d="M 691 4666 
L 3169 4666 
L 3169 4134 
L 1269 4134 
L 1269 2991 
Q 1406 3038 1543 3061 
Q 1681 3084 1819 3084 
Q 2600 3084 3056 2656 
Q 3513 2228 3513 1497 
Q 3513 744 3044 326 
Q 2575 -91 1722 -91 
Q 1428 -91 1123 -41 
Q 819 9 494 109 
L 494 744 
Q 775 591 1075 516 
Q 1375 441 1709 441 
Q 2250 441 2565 725 
Q 2881 1009 2881 1497 
Q 2881 1984 2565 2268 
Q 2250 2553 1709 2553 
Q 1456 2553 1204 2497 
Q 953 2441 691 2322 
L 691 4666 
z
" transform="scale(0.015625)"/>
       </defs>
       <use xlink:href="#DejaVuSans-35"/>
      </g>
     </g>
    </g>
    <g id="text_9">
     <!-- Cousineau-normalized mean score -->
     <g transform="translate(273.786811 281.876219) scale(0.11 -0.11)">
      <defs>
       <path id="DejaVuSans-43" d="M 4122 4306 
L 4122 3641 
Q 3803 3938 3442 4084 
Q 3081 4231 2675 4231 
Q 1875 4231 1450 3742 
Q 1025 3253 1025 2328 
Q 1025 1406 1450 917 
Q 1875 428 2675 428 
Q 3081 428 3442 575 
Q 3803 722 4122 1019 
L 4122 359 
Q 3791 134 3420 21 
Q 3050 -91 2638 -91 
Q 1578 -91 968 557 
Q 359 1206 359 2328 
Q 359 3453 968 4101 
Q 1578 4750 2638 4750 
Q 3056 4750 3426 4639 
Q 3797 4528 4122 4306 
z
" transform="scale(0.015625)"/>
       <path id="DejaVuSans-6f" d="M 1959 3097 
Q 1497 3097 1228 2736 
Q 959 2375 959 1747 
Q 959 1119 1226 758 
Q 1494 397 1959 397 
Q 2419 397 2687 759 
Q 2956 1122 2956 1747 
Q 2956 2369 2687 2733 
Q 2419 3097 1959 3097 
z
M 1959 3584 
Q 2709 3584 3137 3096 
Q 3566 2609 3566 1747 
Q 3566 888 3137 398 
Q 2709 -91 1959 -91 
Q 1206 -91 779 398 
Q 353 888 353 1747 
Q 353 2609 779 3096 
Q 1206 3584 1959 3584 
z
" transform="scale(0.015625)"/>
       <path id="DejaVuSans-75" d="M 544 1381 
L 544 3500 
L 1119 3500 
L 1119 1403 
Q 1119 906 1312 657 
Q 1506 409 1894 409 
Q 2359 409 2629 706 
Q 2900 1003 2900 1516 
L 2900 3500 
L 3475 3500 
L 3475 0 
L 2900 0 
L 2900 538 
Q 2691 219 2414 64 
Q 2138 -91 1772 -91 
Q 1169 -91 856 284 
Q 544 659 544 1381 
z
M 1991 3584 
L 1991 3584 
z
" transform="scale(0.015625)"/>
       <path id="DejaVuSans-73" d="M 2834 3397 
L 2834 2853 
Q 2591 2978 2328 3040 
Q 2066 3103 1784 3103 
Q 1356 3103 1142 2972 
Q 928 2841 928 2578 
Q 928 2378 1081 2264 
Q 1234 2150 1697 2047 
L 1894 2003 
Q 2506 1872 2764 1633 
Q 3022 1394 3022 966 
Q 3022 478 2636 193 
Q 2250 -91 1575 -91 
Q 1294 -91 989 -36 
Q 684 19 347 128 
L 347 722 
Q 666 556 975 473 
Q 1284 391 1588 391 
Q 1994 391 2212 530 
Q 2431 669 2431 922 
Q 2431 1156 2273 1281 
Q 2116 1406 1581 1522 
L 1381 1569 
Q 847 1681 609 1914 
Q 372 2147 372 2553 
Q 372 3047 722 3315 
Q 1072 3584 1716 3584 
Q 2034 3584 2315 3537 
Q 2597 3491 2834 3397 
z
" transform="scale(0.015625)"/>
       <path id="DejaVuSans-69" d="M 603 3500 
L 1178 3500 
L 1178 0 
L 603 0 
L 603 3500 
z
M 603 4863 
L 1178 4863 
L 1178 4134 
L 603 4134 
L 603 4863 
z
" transform="scale(0.015625)"/>
       <path id="DejaVuSans-6e" d="M 3513 2113 
L 3513 0 
L 2938 0 
L 2938 2094 
Q 2938 2591 2744 2837 
Q 2550 3084 2163 3084 
Q 1697 3084 1428 2787 
Q 1159 2491 1159 1978 
L 1159 0 
L 581 0 
L 581 3500 
L 1159 3500 
L 1159 2956 
Q 1366 3272 1645 3428 
Q 1925 3584 2291 3584 
Q 2894 3584 3203 3211 
Q 3513 2838 3513 2113 
z
" transform="scale(0.015625)"/>
       <path id="DejaVuSans-65" d="M 3597 1894 
L 3597 1613 
L 953 1613 
Q 991 1019 1311 708 
Q 1631 397 2203 397 
Q 2534 397 2845 478 
Q 3156 559 3463 722 
L 3463 178 
Q 3153 47 2828 -22 
Q 2503 -91 2169 -91 
Q 1331 -91 842 396 
Q 353 884 353 1716 
Q 353 2575 817 3079 
Q 1281 3584 2069 3584 
Q 2775 3584 3186 3129 
Q 3597 2675 3597 1894 
z
M 3022 2063 
Q 3016 2534 2758 2815 
Q 2500 3097 2075 3097 
Q 1594 3097 1305 2825 
Q 1016 2553 972 2059 
L 3022 2063 
z
" transform="scale(0.015625)"/>
       <path id="DejaVuSans-61" d="M 2194 1759 
Q 1497 1759 1228 1600 
Q 959 1441 959 1056 
Q 959 750 1161 570 
Q 1363 391 1709 391 
Q 2188 391 2477 730 
Q 2766 1069 2766 1631 
L 2766 1759 
L 2194 1759 
z
M 3341 1997 
L 3341 0 
L 2766 0 
L 2766 531 
Q 2569 213 2275 61 
Q 1981 -91 1556 -91 
Q 1019 -91 701 211 
Q 384 513 384 1019 
Q 384 1609 779 1909 
Q 1175 2209 1959 2209 
L 2766 2209 
L 2766 2266 
Q 2766 2663 2505 2880 
Q 2244 3097 1772 3097 
Q 1472 3097 1187 3025 
Q 903 2953 641 2809 
L 641 3341 
Q 956 3463 1253 3523 
Q 1550 3584 1831 3584 
Q 2591 3584 2966 3190 
Q 3341 2797 3341 1997 
z
" transform="scale(0.015625)"/>
       <path id="DejaVuSans-2d" d="M 313 2009 
L 1997 2009 
L 1997 1497 
L 313 1497 
L 313 2009 
z
" transform="scale(0.015625)"/>
       <path id="DejaVuSans-72" d="M 2631 2963 
Q 2534 3019 2420 3045 
Q 2306 3072 2169 3072 
Q 1681 3072 1420 2755 
Q 1159 2438 1159 1844 
L 1159 0 
L 581 0 
L 581 3500 
L 1159 3500 
L 1159 2956 
Q 1341 3275 1631 3429 
Q 1922 3584 2338 3584 
Q 2397 3584 2469 3576 
Q 2541 3569 2628 3553 
L 2631 2963 
z
" transform="scale(0.015625)"/>
       <path id="DejaVuSans-6d" d="M 3328 2828 
Q 3544 3216 3844 3400 
Q 4144 3584 4550 3584 
Q 5097 3584 5394 3201 
Q 5691 2819 5691 2113 
L 5691 0 
L 5113 0 
L 5113 2094 
Q 5113 2597 4934 2840 
Q 4756 3084 4391 3084 
Q 3944 3084 3684 2787 
Q 3425 2491 3425 1978 
L 3425 0 
L 2847 0 
L 2847 2094 
Q 2847 2600 2669 2842 
Q 2491 3084 2119 3084 
Q 1678 3084 1418 2786 
Q 1159 2488 1159 1978 
L 1159 0 
L 581 0 
L 581 3500 
L 1159 3500 
L 1159 2956 
Q 1356 3278 1631 3431 
Q 1906 3584 2284 3584 
Q 2666 3584 2933 3390 
Q 3200 3197 3328 2828 
z
" transform="scale(0.015625)"/>
       <path id="DejaVuSans-6c" d="M 603 4863 
L 1178 4863 
L 1178 0 
L 603 0 
L 603 4863 
z
" transform="scale(0.015625)"/>
       <path id="DejaVuSans-7a" d="M 353 3500 
L 3084 3500 
L 3084 2975 
L 922 459 
L 3084 459 
L 3084 0 
L 275 0 
L 275 525 
L 2438 3041 
L 353 3041 
L 353 3500 
z
" transform="scale(0.015625)"/>
       <path id="DejaVuSans-64" d="M 2906 2969 
L 2906 4863 
L 3481 4863 
L 3481 0 
L 2906 0 
L 2906 525 
Q 2725 213 2448 61 
Q 2172 -91 1784 -91 
Q 1150 -91 751 415 
Q 353 922 353 1747 
Q 353 2572 751 3078 
Q 1150 3584 1784 3584 
Q 2172 3584 2448 3432 
Q 2725 3281 2906 2969 
z
M 947 1747 
Q 947 1113 1208 752 
Q 1469 391 1925 391 
Q 2381 391 2643 752 
Q 2906 1113 2906 1747 
Q 2906 2381 2643 2742 
Q 2381 3103 1925 3103 
Q 1469 3103 1208 2742 
Q 947 2381 947 1747 
z
" transform="scale(0.015625)"/>
       <path id="DejaVuSans-20" transform="scale(0.015625)"/>
       <path id="DejaVuSans-63" d="M 3122 3366 
L 3122 2828 
Q 2878 2963 2633 3030 
Q 2388 3097 2138 3097 
Q 1578 3097 1268 2742 
Q 959 2388 959 1747 
Q 959 1106 1268 751 
Q 1578 397 2138 397 
Q 2388 397 2633 464 
Q 2878 531 3122 666 
L 3122 134 
Q 2881 22 2623 -34 
Q 2366 -91 2075 -91 
Q 1284 -91 818 406 
Q 353 903 353 1747 
Q 353 2603 823 3093 
Q 1294 3584 2113 3584 
Q 2378 3584 2631 3529 
Q 2884 3475 3122 3366 
z
" transform="scale(0.015625)"/>
      </defs>
      <use xlink:href="#DejaVuSans-43"/>
      <use xlink:href="#DejaVuSans-6f" transform="translate(69.824219 0)"/>
      <use xlink:href="#DejaVuSans-75" transform="translate(131.005859 0)"/>
      <use xlink:href="#DejaVuSans-73" transform="translate(194.384766 0)"/>
      <use xlink:href="#DejaVuSans-69" transform="translate(246.484375 0)"/>
      <use xlink:href="#DejaVuSans-6e" transform="translate(274.267578 0)"/>
      <use xlink:href="#DejaVuSans-65" transform="translate(337.646484 0)"/>
      <use xlink:href="#DejaVuSans-61" transform="translate(399.169922 0)"/>
      <use xlink:href="#DejaVuSans-75" transform="translate(460.449219 0)"/>
      <use xlink:href="#DejaVuSans-2d" transform="translate(523.828125 0)"/>
      <use xlink:href="#DejaVuSans-6e" transform="translate(559.912109 0)"/>
      <use xlink:href="#DejaVuSans-6f" transform="translate(623.291016 0)"/>
      <use xlink:href="#DejaVuSans-72" transform="translate(684.472656 0)"/>
      <use xlink:href="#DejaVuSans-6d" transform="translate(723.835938 0)"/>
      <use xlink:href="#DejaVuSans-61" transform="translate(821.248047 0)"/>
      <use xlink:href="#DejaVuSans-6c" transform="translate(882.527344 0)"/>
      <use xlink:href="#DejaVuSans-69" transform="translate(910.310547 0)"/>
      <use xlink:href="#DejaVuSans-7a" transform="translate(938.09375 0)"/>
      <use xlink:href="#DejaVuSans-65" transform="translate(990.583984 0)"/>
      <use xlink:href="#DejaVuSans-64" transform="translate(1052.107422 0)"/>
      <use xlink:href="#DejaVuSans-20" transform="translate(1115.583984 0)"/>
      <use xlink:href="#DejaVuSans-6d" transform="translate(1147.371094 0)"/>
      <use xlink:href="#DejaVuSans-65" transform="translate(1244.783203 0)"/>
      <use xlink:href="#DejaVuSans-61" transform="translate(1306.306641 0)"/>
      <use xlink:href="#DejaVuSans-6e" transform="translate(1367.585938 0)"/>
      <use xlink:href="#DejaVuSans-20" transform="translate(1430.964844 0)"/>
      <use xlink:href="#DejaVuSans-73" transform="translate(1462.751953 0)"/>
      <use xlink:href="#DejaVuSans-63" transform="translate(1514.851562 0)"/>
      <use xlink:href="#DejaVuSans-6f" transform="translate(1569.832031 0)"/>
      <use xlink:href="#DejaVuSans-72" transform="translate(1631.013672 0)"/>
      <use xlink:href="#DejaVuSans-65" transform="translate(1669.876953 0)"/>
     </g>
    </g>
   </g>
   <g id="matplotlib.axis_10"/>
   <g id="LineCollection_13">
    <path d="M 521.877059 236.139407 
L 521.877059 210.967259 
" clip-path="url(#p6890ff2160)" style="fill: none; stroke: #1f77b4; stroke-width: 2.4"/>
   </g>
   <g id="LineCollection_14">
    <path d="M 459.213541 236.139407 
L 459.213541 210.967259 
" clip-path="url(#p6890ff2160)" style="fill: none; stroke: #d62728; stroke-width: 2.4"/>
   </g>
   <g id="LineCollection_15">
    <path d="M 443.910537 236.139407 
L 443.910537 210.967259 
" clip-path="url(#p6890ff2160)" style="fill: none; stroke: #9467bd; stroke-width: 2.4"/>
   </g>
   <g id="text_10">
    <!-- No Interaction -->
    <g transform="translate(60.045818 226.588646) scale(0.11 -0.11)">
     <defs>
      <path id="DejaVuSans-Bold-4e" d="M 588 4666 
L 1931 4666 
L 3628 1466 
L 3628 4666 
L 4769 4666 
L 4769 0 
L 3425 0 
L 1728 3200 
L 1728 0 
L 588 0 
L 588 4666 
z
" transform="scale(0.015625)"/>
     </defs>
     <use xlink:href="#DejaVuSans-Bold-4e"/>
     <use xlink:href="#DejaVuSans-Bold-6f" transform="translate(83.691406 0)"/>
     <use xlink:href="#DejaVuSans-Bold-20" transform="translate(152.392578 0)"/>
     <use xlink:href="#DejaVuSans-Bold-49" transform="translate(187.207031 0)"/>
     <use xlink:href="#DejaVuSans-Bold-6e" transform="translate(224.414062 0)"/>
     <use xlink:href="#DejaVuSans-Bold-74" transform="translate(295.605469 0)"/>
     <use xlink:href="#DejaVuSans-Bold-65" transform="translate(343.408203 0)"/>
     <use xlink:href="#DejaVuSans-Bold-72" transform="translate(411.230469 0)"/>
     <use xlink:href="#DejaVuSans-Bold-61" transform="translate(460.546875 0)"/>
     <use xlink:href="#DejaVuSans-Bold-63" transform="translate(528.027344 0)"/>
     <use xlink:href="#DejaVuSans-Bold-74" transform="translate(587.304688 0)"/>
     <use xlink:href="#DejaVuSans-Bold-69" transform="translate(635.107422 0)"/>
     <use xlink:href="#DejaVuSans-Bold-6f" transform="translate(669.384766 0)"/>
     <use xlink:href="#DejaVuSans-Bold-6e" transform="translate(738.085938 0)"/>
    </g>
   </g>
  </g>
  <g id="axes_6">
   <g id="patch_7">
    <path d="M 577.433864 251.872 
L 956.655 251.872 
L 956.655 195.234667 
L 577.433864 195.234667 
z
" style="fill: #ffffff"/>
   </g>
   <g id="line2d_46">
    <path d="M 577.433864 223.553333 
L 956.655 223.553333 
" clip-path="url(#p1a90f255a4)" style="fill: none; stroke: #d8d8d8; stroke-linecap: square"/>
   </g>
   <g id="FillBetweenPolyCollection_16">
    <defs>
     <path id="maf70f1eec1" d="M 782.334298 -68.148504 
L 770.753196 -68.148504 
L 770.753196 -89.54483 
L 782.334298 -89.54483 
L 782.334298 -89.54483 
L 782.334298 -68.148504 
z
"/>
    </defs>
    <g clip-path="url(#p1a90f255a4)">
     <use xlink:href="#maf70f1eec1" x="0" y="302.4" style="fill: #1f77b4; fill-opacity: 0.16"/>
    </g>
   </g>
   <g id="FillBetweenPolyCollection_17">
    <defs>
     <path id="mb92ea1fa34" d="M 765.066304 -68.148504 
L 747.755795 -68.148504 
L 747.755795 -89.54483 
L 765.066304 -89.54483 
L 765.066304 -89.54483 
L 765.066304 -68.148504 
z
"/>
    </defs>
    <g clip-path="url(#p1a90f255a4)">
     <use xlink:href="#mb92ea1fa34" x="0" y="302.4" style="fill: #d62728; fill-opacity: 0.16"/>
    </g>
   </g>
   <g id="FillBetweenPolyCollection_18">
    <defs>
     <path id="m308ef3c1e2" d="M 753.707392 -68.148504 
L 736.971537 -68.148504 
L 736.971537 -89.54483 
L 753.707392 -89.54483 
L 753.707392 -89.54483 
L 753.707392 -68.148504 
z
"/>
    </defs>
    <g clip-path="url(#p1a90f255a4)">
     <use xlink:href="#m308ef3c1e2" x="0" y="302.4" style="fill: #9467bd; fill-opacity: 0.16"/>
    </g>
   </g>
   <g id="matplotlib.axis_11">
    <g id="xtick_21">
     <g id="line2d_47">
      <path d="M 577.433864 251.872 
L 577.433864 195.234667 
" clip-path="url(#p1a90f255a4)" style="fill: none; stroke: #b0b0b0; stroke-opacity: 0.2; stroke-width: 0.8; stroke-linecap: square"/>
     </g>
     <g id="line2d_48">
      <g>
       <use xlink:href="#m26d64d0b1f" x="577.433864" y="251.872" style="stroke: #000000; stroke-width: 0.8"/>
      </g>
     </g>
     <g id="text_11">
      <!-- 2 -->
      <g transform="translate(573.934489 267.230281) scale(0.11 -0.11)">
       <use xlink:href="#DejaVuSans-32"/>
      </g>
     </g>
    </g>
    <g id="xtick_22">
     <g id="line2d_49">
      <path d="M 703.840909 251.872 
L 703.840909 195.234667 
" clip-path="url(#p1a90f255a4)" style="fill: none; stroke: #b0b0b0; stroke-opacity: 0.2; stroke-width: 0.8; stroke-linecap: square"/>
     </g>
     <g id="line2d_50">
      <g>
       <use xlink:href="#m26d64d0b1f" x="703.840909" y="251.872" style="stroke: #000000; stroke-width: 0.8"/>
      </g>
     </g>
     <g id="text_12">
      <!-- 3 -->
      <g transform="translate(700.341534 267.230281) scale(0.11 -0.11)">
       <use xlink:href="#DejaVuSans-33"/>
      </g>
     </g>
    </g>
    <g id="xtick_23">
     <g id="line2d_51">
      <path d="M 830.247955 251.872 
L 830.247955 195.234667 
" clip-path="url(#p1a90f255a4)" style="fill: none; stroke: #b0b0b0; stroke-opacity: 0.2; stroke-width: 0.8; stroke-linecap: square"/>
     </g>
     <g id="line2d_52">
      <g>
       <use xlink:href="#m26d64d0b1f" x="830.247955" y="251.872" style="stroke: #000000; stroke-width: 0.8"/>
      </g>
     </g>
     <g id="text_13">
      <!-- 4 -->
      <g transform="translate(826.74858 267.230281) scale(0.11 -0.11)">
       <use xlink:href="#DejaVuSans-34"/>
      </g>
     </g>
    </g>
    <g id="xtick_24">
     <g id="line2d_53">
      <path d="M 956.655 251.872 
L 956.655 195.234667 
" clip-path="url(#p1a90f255a4)" style="fill: none; stroke: #b0b0b0; stroke-opacity: 0.2; stroke-width: 0.8; stroke-linecap: square"/>
     </g>
     <g id="line2d_54">
      <g>
       <use xlink:href="#m26d64d0b1f" x="956.655" y="251.872" style="stroke: #000000; stroke-width: 0.8"/>
      </g>
     </g>
     <g id="text_14">
      <!-- 5 -->
      <g transform="translate(953.155625 267.230281) scale(0.11 -0.11)">
       <use xlink:href="#DejaVuSans-35"/>
      </g>
     </g>
    </g>
    <g id="text_15">
     <!-- Cousineau-normalized mean score -->
     <g transform="translate(671.817947 281.876219) scale(0.11 -0.11)">
      <use xlink:href="#DejaVuSans-43"/>
      <use xlink:href="#DejaVuSans-6f" transform="translate(69.824219 0)"/>
      <use xlink:href="#DejaVuSans-75" transform="translate(131.005859 0)"/>
      <use xlink:href="#DejaVuSans-73" transform="translate(194.384766 0)"/>
      <use xlink:href="#DejaVuSans-69" transform="translate(246.484375 0)"/>
      <use xlink:href="#DejaVuSans-6e" transform="translate(274.267578 0)"/>
      <use xlink:href="#DejaVuSans-65" transform="translate(337.646484 0)"/>
      <use xlink:href="#DejaVuSans-61" transform="translate(399.169922 0)"/>
      <use xlink:href="#DejaVuSans-75" transform="translate(460.449219 0)"/>
      <use xlink:href="#DejaVuSans-2d" transform="translate(523.828125 0)"/>
      <use xlink:href="#DejaVuSans-6e" transform="translate(559.912109 0)"/>
      <use xlink:href="#DejaVuSans-6f" transform="translate(623.291016 0)"/>
      <use xlink:href="#DejaVuSans-72" transform="translate(684.472656 0)"/>
      <use xlink:href="#DejaVuSans-6d" transform="translate(723.835938 0)"/>
      <use xlink:href="#DejaVuSans-61" transform="translate(821.248047 0)"/>
      <use xlink:href="#DejaVuSans-6c" transform="translate(882.527344 0)"/>
      <use xlink:href="#DejaVuSans-69" transform="translate(910.310547 0)"/>
      <use xlink:href="#DejaVuSans-7a" transform="translate(938.09375 0)"/>
      <use xlink:href="#DejaVuSans-65" transform="translate(990.583984 0)"/>
      <use xlink:href="#DejaVuSans-64" transform="translate(1052.107422 0)"/>
      <use xlink:href="#DejaVuSans-20" transform="translate(1115.583984 0)"/>
      <use xlink:href="#DejaVuSans-6d" transform="translate(1147.371094 0)"/>
      <use xlink:href="#DejaVuSans-65" transform="translate(1244.783203 0)"/>
      <use xlink:href="#DejaVuSans-61" transform="translate(1306.306641 0)"/>
      <use xlink:href="#DejaVuSans-6e" transform="translate(1367.585938 0)"/>
      <use xlink:href="#DejaVuSans-20" transform="translate(1430.964844 0)"/>
      <use xlink:href="#DejaVuSans-73" transform="translate(1462.751953 0)"/>
      <use xlink:href="#DejaVuSans-63" transform="translate(1514.851562 0)"/>
      <use xlink:href="#DejaVuSans-6f" transform="translate(1569.832031 0)"/>
      <use xlink:href="#DejaVuSans-72" transform="translate(1631.013672 0)"/>
      <use xlink:href="#DejaVuSans-65" transform="translate(1669.876953 0)"/>
     </g>
    </g>
   </g>
   <g id="matplotlib.axis_12"/>
   <g id="LineCollection_16">
    <path d="M 776.543747 236.139407 
L 776.543747 210.967259 
" clip-path="url(#p1a90f255a4)" style="fill: none; stroke: #1f77b4; stroke-width: 2.4"/>
   </g>
   <g id="LineCollection_17">
    <path d="M 756.411049 236.139407 
L 756.411049 210.967259 
" clip-path="url(#p1a90f255a4)" style="fill: none; stroke: #d62728; stroke-width: 2.4"/>
   </g>
   <g id="LineCollection_18">
    <path d="M 745.339465 236.139407 
L 745.339465 210.967259 
" clip-path="url(#p1a90f255a4)" style="fill: none; stroke: #9467bd; stroke-width: 2.4"/>
   </g>
  </g>
  <g id="legend_1">
   <g id="text_16">
    <!-- Visualization Type -->
    <g transform="translate(436.885 12.210281) scale(0.11 -0.11)">
     <defs>
      <path id="DejaVuSans-56" d="M 1831 0 
L 50 4666 
L 709 4666 
L 2188 738 
L 3669 4666 
L 4325 4666 
L 2547 0 
L 1831 0 
z
" transform="scale(0.015625)"/>
      <path id="DejaVuSans-74" d="M 1172 4494 
L 1172 3500 
L 2356 3500 
L 2356 3053 
L 1172 3053 
L 1172 1153 
Q 1172 725 1289 603 
Q 1406 481 1766 481 
L 2356 481 
L 2356 0 
L 1766 0 
Q 1100 0 847 248 
Q 594 497 594 1153 
L 594 3053 
L 172 3053 
L 172 3500 
L 594 3500 
L 594 4494 
L 1172 4494 
z
" transform="scale(0.015625)"/>
      <path id="DejaVuSans-54" d="M -19 4666 
L 3928 4666 
L 3928 4134 
L 2272 4134 
L 2272 0 
L 1638 0 
L 1638 4134 
L -19 4134 
L -19 4666 
z
" transform="scale(0.015625)"/>
      <path id="DejaVuSans-79" d="M 2059 -325 
Q 1816 -950 1584 -1140 
Q 1353 -1331 966 -1331 
L 506 -1331 
L 506 -850 
L 844 -850 
Q 1081 -850 1212 -737 
Q 1344 -625 1503 -206 
L 1606 56 
L 191 3500 
L 800 3500 
L 1894 763 
L 2988 3500 
L 3597 3500 
L 2059 -325 
z
" transform="scale(0.015625)"/>
      <path id="DejaVuSans-70" d="M 1159 525 
L 1159 -1331 
L 581 -1331 
L 581 3500 
L 1159 3500 
L 1159 2969 
Q 1341 3281 1617 3432 
Q 1894 3584 2278 3584 
Q 2916 3584 3314 3078 
Q 3713 2572 3713 1747 
Q 3713 922 3314 415 
Q 2916 -91 2278 -91 
Q 1894 -91 1617 61 
Q 1341 213 1159 525 
z
M 3116 1747 
Q 3116 2381 2855 2742 
Q 2594 3103 2138 3103 
Q 1681 3103 1420 2742 
Q 1159 2381 1159 1747 
Q 1159 1113 1420 752 
Q 1681 391 2138 391 
Q 2594 391 2855 752 
Q 3116 1113 3116 1747 
z
" transform="scale(0.015625)"/>
     </defs>
     <use xlink:href="#DejaVuSans-56"/>
     <use xlink:href="#DejaVuSans-69" transform="translate(66.158203 0)"/>
     <use xlink:href="#DejaVuSans-73" transform="translate(93.941406 0)"/>
     <use xlink:href="#DejaVuSans-75" transform="translate(146.041016 0)"/>
     <use xlink:href="#DejaVuSans-61" transform="translate(209.419922 0)"/>
     <use xlink:href="#DejaVuSans-6c" transform="translate(270.699219 0)"/>
     <use xlink:href="#DejaVuSans-69" transform="translate(298.482422 0)"/>
     <use xlink:href="#DejaVuSans-7a" transform="translate(326.265625 0)"/>
     <use xlink:href="#DejaVuSans-61" transform="translate(378.755859 0)"/>
     <use xlink:href="#DejaVuSans-74" transform="translate(440.035156 0)"/>
     <use xlink:href="#DejaVuSans-69" transform="translate(479.244141 0)"/>
     <use xlink:href="#DejaVuSans-6f" transform="translate(507.027344 0)"/>
     <use xlink:href="#DejaVuSans-6e" transform="translate(568.208984 0)"/>
     <use xlink:href="#DejaVuSans-20" transform="translate(631.587891 0)"/>
     <use xlink:href="#DejaVuSans-54" transform="translate(663.375 0)"/>
     <use xlink:href="#DejaVuSans-79" transform="translate(708.833984 0)"/>
     <use xlink:href="#DejaVuSans-70" transform="translate(768.013672 0)"/>
     <use xlink:href="#DejaVuSans-65" transform="translate(831.490234 0)"/>
    </g>
   </g>
   <g id="line2d_55">
    <defs>
     <path id="mb7169b98ce" d="M 0 6 
L 0 -6 
" style="stroke: #1f77b4; stroke-width: 2.4"/>
    </defs>
    <g>
     <use xlink:href="#mb7169b98ce" x="356.874609" y="24.506219" style="fill: #1f77b4; stroke: #1f77b4; stroke-width: 2.4"/>
    </g>
   </g>
   <g id="text_17">
    <!-- PI -->
    <g transform="translate(376.674609 28.356219) scale(0.11 -0.11)">
     <defs>
      <path id="DejaVuSans-50" d="M 1259 4147 
L 1259 2394 
L 2053 2394 
Q 2494 2394 2734 2622 
Q 2975 2850 2975 3272 
Q 2975 3691 2734 3919 
Q 2494 4147 2053 4147 
L 1259 4147 
z
M 628 4666 
L 2053 4666 
Q 2838 4666 3239 4311 
Q 3641 3956 3641 3272 
Q 3641 2581 3239 2228 
Q 2838 1875 2053 1875 
L 1259 1875 
L 1259 0 
L 628 0 
L 628 4666 
z
" transform="scale(0.015625)"/>
      <path id="DejaVuSans-49" d="M 628 4666 
L 1259 4666 
L 1259 0 
L 628 0 
L 628 4666 
z
" transform="scale(0.015625)"/>
     </defs>
     <use xlink:href="#DejaVuSans-50"/>
     <use xlink:href="#DejaVuSans-49" transform="translate(60.302734 0)"/>
    </g>
   </g>
   <g id="line2d_56">
    <defs>
     <path id="m4949239fdf" d="M 0 6 
L 0 -6 
" style="stroke: #d62728; stroke-width: 2.4"/>
    </defs>
    <g>
     <use xlink:href="#m4949239fdf" x="419.552266" y="24.506219" style="fill: #d62728; stroke: #d62728; stroke-width: 2.4"/>
    </g>
   </g>
   <g id="text_18">
    <!-- Ensemble -->
    <g transform="translate(439.352266 28.356219) scale(0.11 -0.11)">
     <defs>
      <path id="DejaVuSans-45" d="M 628 4666 
L 3578 4666 
L 3578 4134 
L 1259 4134 
L 1259 2753 
L 3481 2753 
L 3481 2222 
L 1259 2222 
L 1259 531 
L 3634 531 
L 3634 0 
L 628 0 
L 628 4666 
z
" transform="scale(0.015625)"/>
      <path id="DejaVuSans-62" d="M 3116 1747 
Q 3116 2381 2855 2742 
Q 2594 3103 2138 3103 
Q 1681 3103 1420 2742 
Q 1159 2381 1159 1747 
Q 1159 1113 1420 752 
Q 1681 391 2138 391 
Q 2594 391 2855 752 
Q 3116 1113 3116 1747 
z
M 1159 2969 
Q 1341 3281 1617 3432 
Q 1894 3584 2278 3584 
Q 2916 3584 3314 3078 
Q 3713 2572 3713 1747 
Q 3713 922 3314 415 
Q 2916 -91 2278 -91 
Q 1894 -91 1617 61 
Q 1341 213 1159 525 
L 1159 0 
L 581 0 
L 581 4863 
L 1159 4863 
L 1159 2969 
z
" transform="scale(0.015625)"/>
     </defs>
     <use xlink:href="#DejaVuSans-45"/>
     <use xlink:href="#DejaVuSans-6e" transform="translate(63.183594 0)"/>
     <use xlink:href="#DejaVuSans-73" transform="translate(126.5625 0)"/>
     <use xlink:href="#DejaVuSans-65" transform="translate(178.662109 0)"/>
     <use xlink:href="#DejaVuSans-6d" transform="translate(240.185547 0)"/>
     <use xlink:href="#DejaVuSans-62" transform="translate(337.597656 0)"/>
     <use xlink:href="#DejaVuSans-6c" transform="translate(401.074219 0)"/>
     <use xlink:href="#DejaVuSans-65" transform="translate(428.857422 0)"/>
    </g>
   </g>
   <g id="line2d_57">
    <defs>
     <path id="mbc8b787726" d="M 0 6 
L 0 -6 
" style="stroke: #9467bd; stroke-width: 2.4"/>
    </defs>
    <g>
     <use xlink:href="#mbc8b787726" x="526.295234" y="24.506219" style="fill: #9467bd; stroke: #9467bd; stroke-width: 2.4"/>
    </g>
   </g>
   <g id="text_19">
    <!-- PI + Ensemble -->
    <g transform="translate(546.095234 28.356219) scale(0.11 -0.11)">
     <defs>
      <path id="DejaVuSans-2b" d="M 2944 4013 
L 2944 2272 
L 4684 2272 
L 4684 1741 
L 2944 1741 
L 2944 0 
L 2419 0 
L 2419 1741 
L 678 1741 
L 678 2272 
L 2419 2272 
L 2419 4013 
L 2944 4013 
z
" transform="scale(0.015625)"/>
     </defs>
     <use xlink:href="#DejaVuSans-50"/>
     <use xlink:href="#DejaVuSans-49" transform="translate(60.302734 0)"/>
     <use xlink:href="#DejaVuSans-20" transform="translate(89.794922 0)"/>
     <use xlink:href="#DejaVuSans-2b" transform="translate(121.582031 0)"/>
     <use xlink:href="#DejaVuSans-20" transform="translate(205.371094 0)"/>
     <use xlink:href="#DejaVuSans-45" transform="translate(237.158203 0)"/>
     <use xlink:href="#DejaVuSans-6e" transform="translate(300.341797 0)"/>
     <use xlink:href="#DejaVuSans-73" transform="translate(363.720703 0)"/>
     <use xlink:href="#DejaVuSans-65" transform="translate(415.820312 0)"/>
     <use xlink:href="#DejaVuSans-6d" transform="translate(477.34375 0)"/>
     <use xlink:href="#DejaVuSans-62" transform="translate(574.755859 0)"/>
     <use xlink:href="#DejaVuSans-6c" transform="translate(638.232422 0)"/>
     <use xlink:href="#DejaVuSans-65" transform="translate(666.015625 0)"/>
    </g>
   </g>
  </g>
 </g>
 <defs>
  <clipPath id="p983e796153">
   <rect x="179.402727" y="58.2" width="379.221136" height="56.637333"/>
  </clipPath>
  <clipPath id="pbcd235ffad">
   <rect x="577.433864" y="58.2" width="379.221136" height="56.637333"/>
  </clipPath>
  <clipPath id="p8e314c2072">
   <rect x="179.402727" y="126.717333" width="379.221136" height="56.637333"/>
  </clipPath>
  <clipPath id="p316f4912fa">
   <rect x="577.433864" y="126.717333" width="379.221136" height="56.637333"/>
  </clipPath>
  <clipPath id="p6890ff2160">
   <rect x="179.402727" y="195.234667" width="379.221136" height="56.637333"/>
  </clipPath>
  <clipPath id="p1a90f255a4">
   <rect x="577.433864" y="195.234667" width="379.221136" height="56.637333"/>
  </clipPath>
 </defs>
</svg>
